<?xml version="1.0" standalone="no"?>
<!DOCTYPE svg PUBLIC "-//W3C//DTD SVG 20010904//EN"
 "http://www.w3.org/TR/2001/REC-SVG-20010904/DTD/svg10.dtd">
<svg version="1.0" xmlns="http://www.w3.org/2000/svg"
 width="379.000000pt" height="133.000000pt" viewBox="0 0 379.000000 133.000000"
 preserveAspectRatio="xMidYMid meet">

<g transform="translate(0.000000,133.000000) scale(0.100000,-0.100000)"
fill="#000000" stroke="none">
<path d="M1563 1288 c-53 -14 -63 -46 -63 -208 0 -77 -1 -140 -2 -140 -2 0
-32 9 -67 20 -190 60 -377 16 -462 -106 -61 -90 -72 -140 -73 -334 -1 -162 1
-180 24 -245 33 -94 117 -181 205 -214 126 -48 292 -36 439 33 128 59 116 -6
116 604 0 398 -3 533 -13 551 -16 33 -63 51 -104 39z m-133 -501 l65 -22 3
-251 2 -251 -47 -21 c-113 -48 -232 -47 -299 4 -18 13 -43 45 -55 71 -22 44
-24 61 -24 193 0 191 21 250 103 287 46 20 179 15 252 -10z"/>
<path d="M3600 1280 c-48 -48 -47 -114 2 -155 39 -33 87 -33 126 0 50 42 50
108 1 154 -31 29 -101 29 -129 1z"/>
<path d="M291 975 c-90 -16 -153 -39 -175 -64 -28 -30 -30 -73 -6 -104 26 -33
54 -34 152 -7 86 24 204 26 254 5 63 -26 79 -53 89 -149 l8 -69 -24 6 c-71 18
-182 29 -244 24 -113 -9 -172 -33 -235 -97 -62 -62 -80 -105 -80 -193 0 -194
162 -312 400 -294 145 11 313 71 340 121 8 17 11 99 8 312 -3 287 -3 289 -29
344 -45 94 -107 142 -216 165 -82 18 -144 18 -242 0z m254 -518 l60 -13 0 -99
0 -100 -49 -25 c-74 -36 -207 -41 -272 -10 -77 38 -104 128 -58 198 38 58 175
79 319 49z"/>
<path d="M2062 979 c-170 -25 -251 -97 -191 -173 25 -32 67 -34 157 -6 83 26
203 27 252 2 55 -27 80 -73 80 -150 0 -53 -3 -63 -15 -58 -44 16 -158 28 -234
23 -203 -12 -322 -115 -323 -282 -1 -135 66 -233 193 -282 62 -24 260 -24 348
0 99 27 187 74 201 107 8 20 11 112 8 312 -3 281 -3 283 -29 338 -69 147 -215
202 -447 169z m238 -522 l55 -12 3 -103 3 -103 -48 -22 c-66 -30 -219 -32
-277 -3 -69 35 -93 128 -50 194 37 57 173 78 314 49z"/>
<path d="M2945 980 c-107 -16 -213 -58 -255 -100 -19 -19 -20 -36 -20 -401 l0
-381 29 -29 c37 -36 79 -38 118 -5 l28 24 3 340 3 340 42 17 c47 20 176 31
232 21 19 -4 51 -21 71 -38 68 -60 68 -61 72 -385 l4 -293 30 -25 c50 -42 110
-28 134 32 14 31 15 81 12 328 -5 322 -10 352 -72 436 -76 103 -238 148 -431
119z"/>
<path d="M3606 948 c-30 -28 -28 5 -27 -476 l1 -383 25 -24 c28 -29 79 -33
111 -10 43 30 45 51 42 469 l-3 398 -28 24 c-36 31 -87 32 -121 2z"/>
</g>
</svg>
