<?xml version="1.0" encoding="UTF-8" standalone="no"?>
<svg
   id="Layer_1"
   viewBox="0 0 1889.96 650.448"
   version="1.1"
   sodipodi:docname="5f510f6e2bab3c96aefb55803b80103a.svg"
   width="1889.96"
   height="650.448"
   xmlns:inkscape="http://www.inkscape.org/namespaces/inkscape"
   xmlns:sodipodi="http://sodipodi.sourceforge.net/DTD/sodipodi-0.dtd"
   xmlns:xlink="http://www.w3.org/1999/xlink"
   xmlns="http://www.w3.org/2000/svg"
   xmlns:svg="http://www.w3.org/2000/svg">
  <sodipodi:namedview
     id="namedview88"
     pagecolor="#ffffff"
     bordercolor="#666666"
     borderopacity="1.0"
     inkscape:pageshadow="2"
     inkscape:pageopacity="0.0"
     inkscape:pagecheckerboard="0" />
  <defs
     id="defs21">
    <style
       id="style2">.cls-1,.cls-2{fill:#72b144;}.cls-3{fill:url(#linear-gradient-8);}.cls-4{fill:url(#linear-gradient-7);}.cls-5{fill:url(#linear-gradient-5);}.cls-6{fill:url(#linear-gradient-6);}.cls-7{fill:url(#linear-gradient-9);}.cls-8{fill:url(#linear-gradient-4);}.cls-9{fill:url(#linear-gradient-3);}.cls-10{fill:url(#linear-gradient-2);}.cls-2{fill-rule:evenodd;}.cls-11{fill:url(#linear-gradient);}.cls-12{fill:#016738;}.cls-13{fill:#fff;}.cls-14{fill:url(#linear-gradient-10);}.cls-15{fill:url(#linear-gradient-11);}.cls-16{fill:url(#linear-gradient-12);}.cls-17{fill:url(#linear-gradient-13);}.cls-18{fill:#066638;}</style>
    <linearGradient
       id="linear-gradient"
       x1="1569.15"
       y1="222.17"
       x2="1588.65"
       y2="222.17"
       gradientUnits="userSpaceOnUse">
      <stop
         offset="0"
         stop-color="#ee335c"
         id="stop4" />
      <stop
         offset="1"
         stop-color="#dae120"
         id="stop6" />
    </linearGradient>
    <linearGradient
       id="linear-gradient-2"
       x1="1544.3199"
       y1="244.58"
       x2="1570.78"
       y2="244.58"
       xlink:href="#linear-gradient"
       gradientTransform="translate(-68.31,-55.412024)" />
    <linearGradient
       id="linear-gradient-3"
       x1="1536.0699"
       y1="269.62"
       x2="1562.71"
       y2="269.62"
       xlink:href="#linear-gradient"
       gradientTransform="translate(-68.31,-55.412024)" />
    <linearGradient
       id="linear-gradient-4"
       x1="1546.62"
       y1="295.13"
       x2="1572.59"
       y2="295.13"
       xlink:href="#linear-gradient"
       gradientTransform="translate(-68.31,-55.412024)" />
    <linearGradient
       id="linear-gradient-5"
       x1="1573.08"
       y1="316.25"
       x2="1591.33"
       y2="316.25"
       xlink:href="#linear-gradient"
       gradientTransform="translate(-68.31,-55.412024)" />
    <linearGradient
       id="linear-gradient-6"
       x1="1598.5699"
       y1="324.20999"
       x2="1611.97"
       y2="324.20999"
       xlink:href="#linear-gradient"
       gradientTransform="translate(-68.31,-55.412024)" />
    <linearGradient
       id="linear-gradient-7"
       x1="1639.21"
       y1="292.94"
       x2="1665.5"
       y2="292.94"
       xlink:href="#linear-gradient"
       gradientTransform="translate(-68.31,-55.412024)" />
    <linearGradient
       id="linear-gradient-8"
       x1="1621.04"
       y1="314.92999"
       x2="1640.12"
       y2="314.92999"
       xlink:href="#linear-gradient"
       gradientTransform="translate(-68.31,-55.412024)" />
    <linearGradient
       id="linear-gradient-9"
       x1="1638.61"
       y1="242.36"
       x2="1664.73"
       y2="242.36"
       xlink:href="#linear-gradient"
       gradientTransform="translate(-68.31,-55.412024)" />
    <linearGradient
       id="linear-gradient-10"
       x1="1648.04"
       y1="267.72"
       x2="1674.5"
       y2="267.72"
       xlink:href="#linear-gradient"
       gradientTransform="translate(-68.31,-55.412024)" />
    <linearGradient
       id="linear-gradient-11"
       x1="1620.11"
       y1="220.78999"
       x2="1638.79"
       y2="220.78999"
       xlink:href="#linear-gradient"
       gradientTransform="translate(-68.31,-55.412024)" />
    <linearGradient
       id="linear-gradient-12"
       x1="1597.61"
       y1="212.25"
       x2="1611.03"
       y2="212.25"
       xlink:href="#linear-gradient"
       gradientTransform="translate(-68.31,-55.412024)" />
    <linearGradient
       id="linear-gradient-13"
       x1="1575.33"
       y1="267.64001"
       x2="1635.23"
       y2="267.64001"
       xlink:href="#linear-gradient"
       gradientTransform="translate(-68.31,-55.412024)" />
    <linearGradient
       inkscape:collect="always"
       xlink:href="#linear-gradient"
       id="linearGradient90"
       gradientUnits="userSpaceOnUse"
       x1="1569.15"
       y1="222.17"
       x2="1588.65"
       y2="222.17"
       gradientTransform="translate(-68.31,-55.412024)" />
  </defs>
  <path
     class="cls-18"
     d="m 188.63,541.75798 c 38.69,-14.33 65.2,-45.21 65.2,-94.31 v -0.87 c 0,-28.69 -9.13,-52.6 -26.07,-69.54 -19.99,-19.99 -49.99,-30.85 -88.68,-30.85 H 0 v 304.25 h 66.93 v -97.37 h 52.6 l 65.18,97.37 h 78.24 l -74.32,-108.69 z m -2.62,-90.83 c 0,25.65 -18.68,43.05 -51.29,43.05 h -67.8 v -87.37 h 66.49 c 32.61,0 52.6,14.8 52.6,43.47 z"
     id="path23" />
  <path
     class="cls-18"
     d="m 754.38,346.19798 v 187.32 l -142.57,-187.32 h -61.73 v 304.25 h 66.07 v -193.44 l 147.36,193.44 h 56.9 v -304.25 h -66.04 z"
     id="path25" />
  <path
     class="cls-18"
     d="m 1094.77,534.40798 c 0,-66.07 -44.69,-126.5 -122.47,-126.5 -67.8,0 -119.73,54.76 -119.73,121.27 v 0.87 c 0,71.28 51.75,120.4 121.72,120.4 42.16,0 93.33,-27.89 111.42,-73.13 l -63.09,0.71 c -18.25,16.98 -25.27,19.36 -47.46,19.36 -29.56,0 -57.22,-15.63 -63.72,-45.63 h 182.48 c 0.44,-6.08 0.85,-12.17 0.85,-17.36 z m -181.93,-26.2 c 5.19,-29.99 34.35,-47.27 61.72,-47.27 27.37,0 58.79,17.72 62.71,47.27 H 912.85 Z"
     id="path27" />
  <path
     class="cls-18"
     d="m 1381.3,415.73798 -38.24,141.69 -44.36,-142.58 h -56.91 l -43.9,142.16 -37.38,-141.28 h -66.96 l 71.74,234.71 h 59.1 l 45.65,-143 44.77,143 h 59.55 l 72.59,-234.71 h -65.65 z"
     id="path29" />
  <path
     class="cls-1"
     d="m 400.37,597.28798 c -51.86,4.71 -67.86,-42.97 -67.86,-42.97 0,0 -15.83,-45.24 15.83,-65.59 31.67,-20.36 76.9,2.26 76.9,2.26 -29.4,-24.88 -61.07,-20.36 -61.07,-20.36 79.16,-27.14 95,42.97 95,42.97 -11.31,-11.31 -36.19,4.52 -65.59,15.83 -29.4,11.31 -52.02,-18.09 -52.02,-18.09 -4.52,9.05 -3.59,36.75 18.09,49.76 22.62,13.57 38.45,11.31 85.95,-6.79 31.47,-11.99 56.98,-13.05 70.61,-12.41 0.42,-4.1 0.64,-8.26 0.64,-12.47 0,-66.83 -54.18,-121.01 -121.01,-121.01 -66.83,0 -121.01,54.18 -121.01,121.01 0,66.83 54.18,121.01 121.01,121.01 53.08,0 98.14,-34.19 114.46,-81.74 -27.48,-6.1 -67.02,24.68 -109.93,28.58 z"
     id="path31" />
  <path
     class="cls-1"
     d="m 1583.68,287.37798 v 245.85 c -10.63,-3.62 -21.16,-7.6 -31.51,-11.87 -3.42,-1.41 -6.83,-2.86 -10.21,-4.36 -10.04,-4.38 -19.94,-9.05 -29.63,-14 v -35.41 l 58.44,-155.67 c 1.1,-2.82 1.05,-5.91 -0.16,-8.7 l -5.93,-13.23 -1.17,-2.61 h 20.16 z"
     id="path33" />
  <path
     class="cls-11"
     d="m 1520.34,172.77798 c -4.15,1.72 -8.03,4.1 -11.46,7.01 -1.33,-2.89 -2.59,-6.03 -3.74,-9.35 -2.06,-5.85 -3.51,-11.56 -4.31,-16.71 4.2,3.09 8.62,6.93 12.93,11.42 2.39,2.54 4.61,5.09 6.58,7.63 z"
     id="path35"
     style="fill:url(#linearGradient90)" />
  <path
     class="cls-10"
     d="m 1502.47,186.55798 c -2.66,3.51 -4.84,7.47 -6.37,11.85 -2.62,-1.84 -5.3,-3.92 -7.94,-6.19 -4.72,-4.04 -8.81,-8.25 -12.15,-12.29 5.18,0.55 10.96,1.67 16.94,3.41 3.35,0.98 6.53,2.07 9.52,3.23 z"
     id="path37"
     style="fill:url(#linear-gradient-2)" />
  <path
     class="cls-9"
     d="m 1494.4,220.90798 c -3.19,-0.27 -6.53,-0.73 -9.97,-1.35 -6.12,-1.12 -11.76,-2.68 -16.67,-4.5 4.77,-2.13 10.3,-4.04 16.35,-5.59 3.37,-0.83 6.67,-1.49 9.86,-1.97 -0.59,4.56 -0.39,9.08 0.43,13.41 z"
     id="path39"
     style="fill:url(#linear-gradient-3)" />
  <path
     class="cls-8"
     d="m 1504.28,241.21798 c -2.91,1.4 -6.01,2.68 -9.29,3.87 -5.85,2.11 -11.53,3.6 -16.67,4.49 3.05,-4.22 6.86,-8.71 11.31,-13.03 2.48,-2.43 5.02,-4.68 7.5,-6.67 1.77,4.13 4.19,7.94 7.15,11.35 z"
     id="path41"
     style="fill:url(#linear-gradient-4)" />
  <path
     class="cls-5"
     d="m 1523.02,253.80798 c -1.81,2.66 -3.87,5.32 -6.08,8 -3.97,4.77 -8.14,8.94 -12.17,12.29 0.5,-5.21 1.56,-10.98 3.21,-16.97 0.94,-3.35 1.99,-6.56 3.12,-9.54 3.53,2.64 7.54,4.75 11.92,6.22 z"
     id="path43"
     style="fill:url(#linear-gradient-5)" />
  <path
     class="cls-6"
     d="m 1543.66,255.62798 c -0.35,3.17 -0.92,6.47 -1.65,9.86 -1.31,6.08 -3.07,11.7 -5.05,16.51 -1.99,-4.81 -3.72,-10.43 -5.02,-16.51 -0.76,-3.39 -1.29,-6.7 -1.68,-9.9 4.56,0.74 9.06,0.71 13.41,0.04 z"
     id="path45"
     style="fill:url(#linear-gradient-6)" />
  <path
     class="cls-4"
     d="m 1597.19,246.97798 c -5.18,-0.67 -10.92,-1.93 -16.85,-3.79 -3.33,-1.03 -6.47,-2.18 -9.43,-3.41 2.78,-3.48 5.02,-7.4 6.63,-11.7 2.57,1.9 5.18,4.03 7.77,6.33 4.65,4.17 8.65,8.44 11.88,12.57 z"
     id="path47"
     style="fill:url(#linear-gradient-7)" />
  <path
     class="cls-3"
     d="m 1571.81,272.61798 c -4.15,-3.19 -8.49,-7.15 -12.68,-11.74 -2.34,-2.57 -4.49,-5.16 -6.4,-7.73 4.19,-1.6 8.1,-3.88 11.6,-6.74 1.28,2.93 2.47,6.07 3.55,9.38 1.9,5.94 3.21,11.65 3.94,16.83 z"
     id="path49"
     style="fill:url(#linear-gradient-8)" />
  <path
     class="cls-7"
     d="m 1596.42,177.29798 c -3.14,4.19 -7.06,8.55 -11.6,12.79 -2.54,2.38 -5.11,4.56 -7.64,6.51 -1.67,-4.19 -3.99,-8.07 -6.88,-11.54 2.91,-1.31 6.05,-2.5 9.35,-3.64 5.89,-1.97 11.6,-3.33 16.78,-4.11 z"
     id="path51"
     style="fill:url(#linear-gradient-9)" />
  <path
     class="cls-14"
     d="m 1606.19,212.01798 c -4.81,2.02 -10.39,3.83 -16.46,5.23 -3.39,0.76 -6.69,1.37 -9.86,1.76 0.66,-4.56 0.6,-9.06 -0.14,-13.41 3.19,0.34 6.51,0.85 9.9,1.54 6.08,1.24 11.72,2.94 16.56,4.88 z"
     id="path53"
     style="fill:url(#linear-gradient-10)" />
  <path
     class="cls-15"
     d="m 1570.48,152.18798 c -0.58,5.2 -1.77,10.92 -3.56,16.88 -1.01,3.33 -2.13,6.51 -3.33,9.49 -3.49,-2.73 -7.43,-4.91 -11.78,-6.49 1.88,-2.61 3.99,-5.23 6.26,-7.87 4.1,-4.66 8.35,-8.73 12.41,-12.01 z"
     id="path55"
     style="fill:url(#linear-gradient-11)" />
  <path
     class="cls-16"
     d="m 1542.72,169.83798 c -4.52,-0.62 -9.06,-0.5 -13.42,0.3 0.32,-3.21 0.8,-6.53 1.45,-9.95 1.19,-6.1 2.82,-11.76 4.7,-16.63 2.08,4.79 3.96,10.37 5.39,16.4 0.82,3.39 1.45,6.69 1.88,9.88 z"
     id="path57"
     style="fill:url(#linear-gradient-12)" />
  <path
     class="cls-17"
     d="m 1565.84,220.18798 c -4.38,15.93 -20.88,25.29 -36.81,20.91 -15.94,-4.4 -25.32,-20.88 -20.92,-36.81 4.38,-15.94 20.88,-25.32 36.82,-20.92 15.93,4.38 25.29,20.85 20.91,36.82 z"
     id="path59"
     style="fill:url(#linear-gradient-13)" />
  <path
     class="cls-12"
     d="m 1558.13,307.41798 -68.76,183.17 -4.29,11.42 -7.13,18.98 -0.1,0.21 c -0.38,0.7 -1.15,1.03 -1.92,0.84 l -6.92,-1.93 c -0.89,-0.23 -1.39,-1.12 -1.22,-1.97 l 5.16,-22.99 1.92,-8.54 38.85,-173.19 c 0.09,-0.38 0.31,-0.71 0.64,-0.96 l 9.73,-7.25 -3.63,-15.62 c -0.05,-0.26 -0.03,-0.52 0.02,-0.82 l 0.73,-2.65 c 9.5,2.02 19,2.07 28.06,0.42 l 8.82,19.62 c 0.17,0.38 0.19,0.85 0.03,1.26 z"
     id="path61" />
  <path
     class="cls-12"
     d="m 1558.13,307.41798 -68.76,183.17 -4.29,11.42 -7.13,18.98 -0.1,0.21 c -0.38,0.7 -1.15,1.03 -1.92,0.84 l -6.92,-1.93 c -0.89,-0.23 -1.39,-1.12 -1.22,-1.97 l 5.16,-22.99 1.92,-8.54 38.85,-173.19 c 0.09,-0.38 0.31,-0.71 0.64,-0.96 l 9.73,-7.25 -3.63,-15.62 c -0.05,-0.26 -0.03,-0.52 0.02,-0.82 l 0.73,-2.65 c 9.5,2.02 19,2.07 28.06,0.42 l 8.82,19.62 c 0.17,0.38 0.19,0.85 0.03,1.26 z"
     id="path63" />
  <path
     class="cls-12"
     d="m 1480.39,161.59798 c -6.87,6.95 -12.4,15.36 -16.07,24.92 l -18.61,-1.91 c -0.44,-0.05 -0.85,-0.26 -1.13,-0.61 L 1299.72,7.787976 c -0.56,-0.67 -0.53,-1.68 0.13,-2.25 l 5.11,-5.03999997 c 0.64,-0.64 1.64,-0.67 2.3,-0.05 L 1461.62,142.54798 c 0.28,0.28 0.48,0.66 0.53,1.04 l 1.41,12.08 15.3,4.65 c 0.25,0.1 0.49,0.23 0.69,0.43 l 0.85,0.85 z"
     id="path65" />
  <path
     class="cls-1"
     d="m 1537.62,632.33798 c -1.15,3.19 -2.37,6.34 -3.63,9.48 -1.19,2.89 -2.42,5.79 -3.71,8.63 h -17.95 v -26.65 c 8.68,2.18 17.41,4.13 26.21,5.91 -0.3,0.89 -0.61,1.76 -0.92,2.63 z"
     id="path67" />
  <path
     class="cls-1"
     d="m 1583.68,636.90798 v 13.54 h -48.29 c 0.98,-2.04 1.92,-4.1 2.82,-6.17 1.34,-3.03 2.6,-6.08 3.82,-9.18 0.58,-1.45 1.12,-2.91 1.66,-4.37 13.18,2.54 26.53,4.62 40,6.19 z"
     id="path69" />
  <path
     class="cls-1"
     d="m 1548.22,594.04798 c -1.69,8.61 -3.8,17.08 -6.33,25.39 -9.95,-2.25 -19.82,-4.78 -29.56,-7.55 v -41.9 c 6.99,2.39 14.03,4.64 21.12,6.78 5.59,1.67 11.22,3.28 16.91,4.79 -0.07,0.52 -0.14,1.03 -0.23,1.55 -0.54,3.66 -1.2,7.3 -1.92,10.93 z"
     id="path71" />
  <path
     class="cls-1"
     d="m 1553.46,532.80798 c 0.03,1.8 0.05,3.57 0.05,5.35 0.02,11.17 -0.57,22.2 -1.79,33.08 -13.35,-3.96 -26.49,-8.42 -39.39,-13.33 v -42.3 c 6.31,2.93 12.67,5.73 19.08,8.45 5.37,2.27 10.77,4.44 16.24,6.55 1.92,0.75 3.85,1.48 5.8,2.2 z"
     id="path73" />
  <path
     class="cls-1"
     d="m 1560.69,535.43798 c 7.58,2.72 15.25,5.26 22.99,7.63 v 36.58 c -8.7,-1.99 -17.31,-4.2 -25.86,-6.64 1.31,-9.45 2.16,-18.95 2.6,-28.46 0.14,-3.03 0.24,-6.08 0.28,-9.12 z"
     id="path75" />
  <path
     class="cls-1"
     d="m 1556.27,583.10798 c 9.06,2.32 18.2,4.41 27.42,6.26 v 37.84 c -12.27,-1.76 -24.47,-3.97 -36.53,-6.57 2.4,-7.56 4.48,-15.2 6.22,-22.92 0.78,-3.49 1.52,-6.99 2.16,-10.47 0.26,-1.38 0.51,-2.75 0.73,-4.13 z"
     id="path77" />
  <path
     class="cls-12"
     d="m 1838.52,118.18798 c -0.2,0.36 -0.56,0.66 -0.97,0.79 l -200.25,62.6 c -0.38,0.13 -0.8,0.1 -1.17,-0.05 l -11.12,-4.8 -11.71,10.89 c -0.18,0.2 -0.43,0.33 -0.71,0.39 l -2.51,0.66 c -2.76,-9.15 -7.31,-17.69 -13.36,-25.09 l 12.13,-16.79 c 0.25,-0.36 0.64,-0.61 1.07,-0.67 l 225.05,-37.36 c 0.85,-0.13 1.68,0.39 1.89,1.23 l 1.81,6.97 c 0.12,0.41 0.05,0.89 -0.15,1.23 z"
     id="path79" />
  <path
     class="cls-2"
     d="m 1681.78,629.26798 c 0.35,0.23 0.69,0.45 1.06,0.68 0.12,-0.26 0.23,-0.52 0.31,-0.78 -0.45,0.05 -0.92,0.07 -1.37,0.1 z m 51.8,-51.92 c -2.32,-0.76 -4.58,-1.67 -6.78,-2.69 -6.66,-3.11 -12.73,-7.32 -17.95,-12.4 -1.41,-0.02 -2.83,-0.05 -4.23,-0.1 -1.42,-0.03 -2.85,-0.09 -4.27,-0.16 -0.1,0.73 -0.21,1.47 -0.31,2.2 -1.25,8.64 -2.84,17.21 -4.82,25.71 11.34,-0.21 22.64,-0.92 33.88,-2.13 1.98,-0.21 3.96,-0.43 5.92,-0.69 1.96,-0.24 3.92,-0.5 5.86,-0.78 0.16,-2.29 0.3,-4.58 0.38,-6.89 -2.62,-0.54 -5.17,-1.23 -7.67,-2.06 z m 2.11,15.73 c -1.93,0.28 -3.85,0.56 -5.79,0.78 -12.04,1.56 -24.2,2.53 -36.39,2.97 -0.76,3.07 -1.61,6.12 -2.5,9.16 -0.97,3.4 -2.05,6.8 -3.16,10.16 -1.46,4.39 -3.02,8.73 -4.7,13.01 16.36,-1.11 32.63,-3.19 48.62,-6.31 1.37,-0.26 2.74,-0.54 4.11,-0.82 1.56,-7.44 2.81,-14.95 3.73,-22.55 0.26,-2.15 0.5,-4.32 0.69,-6.5 0.02,-0.21 0.03,-0.4 0.05,-0.61 -1.54,0.24 -3.1,0.49 -4.67,0.71 z m 99.09,-3.57 c -1.8,1.08 -3.63,2.15 -5.46,3.19 -11.28,6.44 -22.9,12.13 -34.81,17.09 -0.02,0.31 -0.05,0.62 -0.09,0.94 -0.16,1.4 -0.31,2.79 -0.5,4.2 -0.23,1.86 -0.49,3.71 -0.75,5.59 -1.3,8.69 -3.07,17.28 -5.29,25.74 15.39,-3.9 29.7,-10.46 42.45,-19.17 0.78,-0.52 1.54,-1.04 2.31,-1.6 3.16,-11.26 5.52,-22.72 7.1,-34.35 0.21,-1.54 0.4,-3.11 0.57,-4.65 0.02,-0.14 0.03,-0.26 0.03,-0.4 -1.84,1.16 -3.68,2.29 -5.55,3.42 z m 6.99,-48.15 c -0.04,-0.75 -0.07,-1.49 -0.11,-2.24 -4.89,1.99 -9.8,3.83 -14.76,5.53 -2.13,0.73 -4.25,1.44 -6.4,2.12 -2.12,0.69 -4.27,1.35 -6.4,1.98 -1.41,0.42 -2.81,0.83 -4.22,1.21 -3.85,6.18 -8.71,11.66 -14.35,16.22 0.12,2.6 0.23,5.19 0.28,7.77 9.75,-3.07 19.38,-6.63 28.83,-10.69 1.98,-0.83 3.95,-1.7 5.93,-2.6 3.87,-1.75 7.72,-3.57 11.54,-5.5 0,-4.6 -0.1,-9.19 -0.35,-13.81 z m -86.86,-161.76 c -13.69,0 -26.9,2.03 -39.34,5.81 l 4.46,-27.06 h 119.88 l 12.58,-53.5 3.99,-17.95 h -196.72 l -12.21,71.45 -15.27,89.59 62.27,40.96 c 4.08,-9.21 10.22,-17.29 17.81,-23.66 11.34,-9.56 26.02,-15.32 42.03,-15.32 36.11,0 65.41,29.3 65.41,65.41 0,10.53 -2.5,20.49 -6.94,29.32 0.05,0 0.1,-0.02 0.16,-0.03 13.36,-3.63 26.56,-8.17 39.52,-13.69 1.89,-0.8 3.78,-1.63 5.67,-2.48 0.16,-0.07 0.31,-0.14 0.47,-0.21 10.74,-4.82 21.16,-10.27 31.26,-16.29 -1.42,-73.34 -61.32,-132.35 -135.02,-132.35 z m 123.56,157.11 v 0.09 c -0.03,1.04 -0.09,2.12 -0.14,3.17 -0.23,5.19 -0.61,10.39 -1.14,15.56 2.9,-2.38 5.76,-4.82 8.57,-7.34 1.63,-6.35 2.81,-12.87 3.49,-19.55 -3.54,2.76 -7.11,5.45 -10.77,8.07 z m 0.14,-15.44 c 0,0.78 0.02,1.56 0.03,2.36 0.03,3.3 0,6.61 -0.09,9.92 3.73,-2.57 7.39,-5.22 10.98,-7.94 0.28,-3.63 0.43,-7.29 0.43,-10.98 v -0.07 c -3.75,2.31 -7.53,4.56 -11.36,6.71 z m -1.82,37.97 c -0.07,0.66 -0.14,1.34 -0.23,1.99 -0.54,4.41 -1.18,8.81 -1.93,13.2 -0.24,1.37 -0.49,2.72 -0.75,4.09 4.46,-8.24 8.07,-17.02 10.72,-26.18 -2.57,2.36 -5.17,4.65 -7.82,6.89 z m -11.28,9.18 c -1.01,0.78 -2.01,1.54 -3.04,2.31 -0.78,0.61 -1.56,1.2 -2.36,1.79 -4.51,3.38 -9.11,6.61 -13.77,9.7 -0.1,0.92 -0.21,1.84 -0.33,2.76 -0.17,1.51 -0.38,3.02 -0.61,4.54 -0.33,2.46 -0.73,4.94 -1.16,7.41 -1.41,8.07 -3.21,16.03 -5.41,23.89 8.4,-6.73 15.94,-14.41 22.48,-22.91 1.61,-2.06 3.16,-4.16 4.61,-6.33 2.05,-8.95 3.63,-18.02 4.7,-27.18 -1.7,1.37 -3.4,2.72 -5.12,4.04 z m 6.89,-43.3 c 0,-0.14 0,-0.29 -0.02,-0.43 -4.23,2.29 -8.54,4.46 -12.89,6.52 -0.03,0.02 -0.05,0.03 -0.09,0.03 -2.01,0.97 -4.02,1.93 -6.05,2.85 -1.94,0.88 -3.89,1.75 -5.83,2.58 0.17,0 0.33,0 0.5,-0.02 0.05,1.42 0.1,2.83 0.14,4.27 0.11,3.68 0.12,7.37 0.09,11.07 2.72,-1.46 5.45,-2.97 8.14,-4.51 0.88,-0.49 1.75,-1.01 2.62,-1.51 1.04,-0.61 2.06,-1.21 3.11,-1.84 3.49,-2.08 6.94,-4.23 10.34,-6.47 0.09,-4.16 0.05,-8.36 -0.05,-12.54 z m -11.81,23.45 c -1.18,0.75 -2.38,1.47 -3.57,2.17 -2.93,1.79 -5.88,3.5 -8.85,5.15 0,0.92 -0.03,1.84 -0.07,2.74 -0.03,1.44 -0.09,2.88 -0.16,4.32 -0.23,4.93 -0.59,9.84 -1.11,14.74 4.35,-2.79 8.66,-5.71 12.91,-8.76 0.31,-0.21 0.62,-0.43 0.94,-0.66 1.51,-1.08 3,-2.17 4.49,-3.3 1.98,-1.47 3.95,-2.98 5.9,-4.51 0.64,-6.07 1.08,-12.18 1.27,-18.32 0.02,-0.4 0.03,-0.8 0.03,-1.21 -3.19,2.19 -6.42,4.28 -9.7,6.33 -0.69,0.45 -1.39,0.87 -2.08,1.3 z m -29.25,16.03 c -1.94,0.94 -3.89,1.84 -5.85,2.71 -9.7,4.41 -19.57,8.26 -29.59,11.62 0.03,1.51 0.03,3 0.02,4.51 0,1.8 -0.03,3.57 -0.09,5.34 -0.12,5.2 -0.4,10.37 -0.83,15.54 11.54,-4.63 22.83,-9.96 33.83,-15.98 1.86,-1.01 3.7,-2.05 5.53,-3.11 2.17,-1.25 4.34,-2.52 6.49,-3.83 0.57,-5.74 0.94,-11.52 1.11,-17.35 0.07,-1.46 0.09,-2.95 0.12,-4.42 v -0.43 c -3.56,1.87 -7.13,3.68 -10.74,5.39 z m -42.81,47.62 c -1.8,0.71 -3.61,1.42 -5.41,2.1 -14.1,5.27 -28.55,9.61 -43.26,13.06 -0.19,0.8 -0.4,1.6 -0.61,2.39 -0.56,2.15 -1.16,4.28 -1.79,6.38 -1.25,4.25 -2.6,8.46 -4.08,12.65 0.56,0.1 1.13,0.19 1.7,0.28 6.3,0.9 12.75,1.37 19.31,1.37 9.52,0 18.82,-0.99 27.79,-2.86 0.26,-0.05 0.54,-0.1 0.8,-0.17 2.08,-8.57 3.71,-17.22 4.87,-25.97 0.26,-1.87 0.49,-3.78 0.69,-5.65 0.14,-1.25 0.28,-2.48 0.38,-3.73 -0.14,0.05 -0.26,0.1 -0.4,0.16 z m -56.81,17 c -12.91,2.74 -25.98,4.82 -39.15,6.28 11.29,5.83 23.49,10.1 36.34,12.56 1.32,-4.04 2.53,-8.12 3.64,-12.23 0.59,-2.15 1.15,-4.34 1.67,-6.52 0.05,-0.23 0.1,-0.45 0.16,-0.68 -0.89,0.21 -1.77,0.4 -2.65,0.59 z m 58.34,-48.42 c -1.39,0.43 -2.79,0.87 -4.2,1.28 -1.94,0.59 -3.9,1.16 -5.86,1.7 -11.14,3.11 -22.41,5.64 -33.81,7.61 -0.1,0.85 -0.19,1.72 -0.3,2.57 -0.24,2.12 -0.5,4.25 -0.8,6.38 -0.62,4.54 -1.39,9.11 -2.25,13.67 -0.43,2.27 -0.9,4.54 -1.42,6.82 14.05,-3.12 27.89,-7.08 41.42,-11.9 1.84,-0.66 3.66,-1.32 5.48,-2.01 0.37,-0.14 0.73,-0.28 1.09,-0.42 0.43,-5.72 0.68,-11.47 0.71,-17.23 0.04,-1.8 0.04,-3.63 0,-5.45 -0.02,-1.01 -0.02,-2.03 -0.07,-3.04 z m -0.42,-10.37 c -1.68,1.09 -3.42,2.1 -5.2,3.02 -1.89,0.99 -3.83,1.87 -5.83,2.67 -7.49,2.98 -15.66,4.63 -24.22,4.63 -2.45,0 -4.86,-0.14 -7.23,-0.42 -0.12,1.7 -0.26,3.38 -0.4,5.08 10.89,-1.7 21.68,-3.92 32.35,-6.68 1.99,-0.5 3.99,-1.04 5.97,-1.6 1.61,-0.45 3.21,-0.9 4.82,-1.39 -0.05,-1.77 -0.14,-3.54 -0.26,-5.33 z m -88.24,-16.79 c -0.07,0.59 -0.14,1.16 -0.21,1.75 0.54,0.05 1.06,0.07 1.6,0.1 -0.49,-0.61 -0.94,-1.23 -1.39,-1.86 z m -32.7,5.83 c -0.16,-0.02 -0.31,-0.03 -0.47,-0.07 l -6.28,4.13 -25.9,17.03 c 1.28,2.32 2.62,4.6 4.04,6.82 8.81,0.97 17.64,1.67 26.47,2.1 2.27,0.12 4.54,0.21 6.82,0.29 5.13,0.17 10.25,0.24 15.37,0.21 1.99,-9.28 3.52,-18.73 4.6,-28.34 -8.22,-0.47 -16.44,-1.2 -24.65,-2.17 z m 25.97,-17.45 -17.1,11.24 c 5.48,0.66 10.98,1.21 16.48,1.63 0.35,-4.08 0.64,-8.2 0.85,-12.33 0.02,0.02 0.03,0.05 0.05,0.07 -0.09,-0.21 -0.19,-0.4 -0.28,-0.61 z m -20.64,55.09 c -2.19,-0.02 -4.39,-0.07 -6.57,-0.12 -7.16,-0.17 -14.33,-0.52 -21.47,-1.04 6.59,8.88 14.28,16.91 22.83,23.92 1.94,1.61 3.94,3.16 5.98,4.63 1.11,0.82 2.22,1.61 3.35,2.38 1.8,-4.87 3.45,-9.84 4.96,-14.85 1.06,-3.5 2.06,-7.06 2.97,-10.63 0.38,-1.46 0.75,-2.9 1.08,-4.37 -4.35,0.1 -8.74,0.12 -13.11,0.09 z"
     id="path81" />
  <path
     class="cls-13"
     d="m 1681.78,629.26798 c 0.45,-0.03 0.92,-0.05 1.37,-0.1 -0.09,0.26 -0.19,0.52 -0.31,0.78 -0.36,-0.23 -0.71,-0.45 -1.06,-0.68 z"
     id="path83" />
  <path
     class="cls-13"
     d="m 1683.15,629.16798 c -0.09,0.26 -0.19,0.52 -0.31,0.78 -0.36,-0.23 -0.71,-0.45 -1.06,-0.68 0.45,-0.03 0.92,-0.05 1.37,-0.1 z"
     id="path85" />
</svg>
