<?xml version="1.0" standalone="no"?>
<!DOCTYPE svg PUBLIC "-//W3C//DTD SVG 20010904//EN"
 "http://www.w3.org/TR/2001/REC-SVG-20010904/DTD/svg10.dtd">
<svg version="1.0" xmlns="http://www.w3.org/2000/svg"
 width="185.000000pt" height="51.000000pt" viewBox="0 0 185.000000 51.000000"
 preserveAspectRatio="xMidYMid meet">
<metadata>
Created by potrace 1.16, written by Peter Selinger 2001-2019
</metadata>
<g transform="translate(0.000000,51.000000) scale(0.100000,-0.100000)"
fill="#000000" stroke="none">
<path d="M512 363 c2 -87 7 -148 13 -150 6 -2 31 36 57 84 26 49 63 116 83
151 l35 62 -95 0 -96 0 3 -147z"/>
<path d="M780 360 c0 -195 13 -199 59 -17 19 72 36 140 39 150 4 14 -3 17 -47
17 l-51 0 0 -150z"/>
<path d="M1095 485 c14 -13 25 -34 25 -45 0 -37 -30 -81 -66 -96 l-35 -15 32
-60 c18 -33 37 -58 42 -56 6 2 27 69 47 150 l38 147 -54 0 -53 0 24 -25z"/>
<path d="M1438 483 l-3 -28 -107 -3 c-84 -2 -108 -6 -108 -17 0 -7 -3 -20 -6
-29 -5 -14 7 -16 95 -16 105 0 111 -3 95 -44 -5 -13 -25 -16 -110 -16 -57 0
-104 -4 -104 -9 0 -5 -3 -16 -6 -25 -5 -14 7 -16 99 -16 l106 0 -10 -32 c-10
-35 -7 -43 14 -35 8 3 27 56 45 129 18 67 35 133 38 146 5 18 2 22 -14 22 -15
0 -22 -7 -24 -27z"/>
<path d="M1742 480 l-11 -29 -102 -3 c-103 -3 -103 -3 -110 -30 l-7 -28 103 0
103 0 -7 -27 c-7 -28 -8 -28 -111 -33 -95 -5 -103 -7 -111 -27 -8 -23 -8 -23
97 -23 96 0 105 -2 100 -17 -3 -10 -8 -30 -12 -45 l-6 -28 -834 0 -834 0 0
-95 0 -95 925 0 925 0 0 255 0 255 -49 0 c-45 0 -50 -2 -59 -30z"/>
</g>
</svg>
